<svg xmlns="http://www.w3.org/2000/svg" shape-rendering="geometricPrecision" text-rendering="geometricPrecision" image-rendering="optimizeQuality" fill-rule="evenodd" clip-rule="evenodd" viewBox="0 0 512 308.047"><path fill-rule="nonzero" d="M77.222 276.507c-18.424 10.426-32.947 12.317-42.803 9.097-4.006-1.309-7.158-3.499-9.364-6.27-2.203-2.767-3.539-6.172-3.91-9.906-.799-8.049 2.724-17.637 11.382-26.39.218-.22.423-.448.618-.682L225.082 42.061l.017.018C239.086 28.092 248.254 21.097 256 21.097c7.746 0 16.914 6.995 30.901 20.982.125.125.252.246.382.363l192.21 200.577-.02.019c8.659 8.754 12.181 18.341 11.382 26.39-.371 3.734-1.708 7.139-3.911 9.906-2.205 2.771-5.357 4.961-9.363 6.27-9.917 3.24-24.559 1.307-43.145-9.291l-.211-.116.005-.008-173.244-93.352a10.522 10.522 0 00-10.113.076L77.77 276.189c-.187.101-.37.208-.548.318zm-49.314 29.122c14.958 4.887 35.475 2.882 59.657-10.805L256 204.066l168.258 90.666.003-.006c24.258 13.776 44.837 15.802 59.831 10.903 8.092-2.643 14.611-7.259 19.335-13.192 4.727-5.937 7.584-13.136 8.36-20.95 1.384-13.94-3.951-29.771-17.315-43.283l-.018.018-191.981-200.34a10.776 10.776 0 00-.656-.719C283.709 9.055 270.566 0 256 0c-14.566 0-27.709 9.055-45.817 27.163l.019.019L17.953 227.798c-.145.131-.286.266-.425.406C4.164 241.715-1.171 257.547.213 271.487c.776 7.814 3.632 15.013 8.36 20.95 4.724 5.934 11.243 10.549 19.335 13.192z"/></svg>