<svg xmlns="http://www.w3.org/2000/svg" shape-rendering="geometricPrecision" text-rendering="geometricPrecision" image-rendering="optimizeQuality" fill-rule="evenodd" clip-rule="evenodd" viewBox="0 0 512 499.93"><path fill-rule="nonzero" d="M114.51 278.73c-4.37-4.2-4.55-11.2-.38-15.62a10.862 10.862 0 0 1 15.46-.39l115.34 111.34V11.07C244.93 4.95 249.88 0 256 0c6.11 0 11.06 4.95 11.06 11.07v362.42L378.1 262.85c4.3-4.27 11.23-4.21 15.46.13 4.23 4.35 4.17 11.35-.13 15.62L264.71 406.85a11.015 11.015 0 0 1-8.71 4.25c-3.45 0-6.52-1.57-8.56-4.04L114.51 278.73zm375.35 110.71c0-6.11 4.96-11.07 11.07-11.07S512 383.33 512 389.44v99.42c0 6.12-4.96 11.07-11.07 11.07H11.07C4.95 499.93 0 494.98 0 488.86v-99.42c0-6.11 4.95-11.07 11.07-11.07 6.11 0 11.07 4.96 11.07 11.07v88.36h467.72v-88.36z"/></svg>