<?xml version="1.0" encoding="utf-8"?><svg version="1.1" id="Layer_1" xmlns="http://www.w3.org/2000/svg" xmlns:xlink="http://www.w3.org/1999/xlink" x="0px" y="0px" viewBox="0 0 122.88 96.32" style="enable-background:new 0 0 122.88 96.32" xml:space="preserve"><g><path d="M104.54,23.28c6.82,6.28,12.8,14.02,17.67,22.87l0.67,1.22l-0.67,1.21c-6.88,12.49-15.96,22.77-26.48,29.86 c-8.84,5.95-18.69,9.67-29.15,10.59l6.73-11.66c5.25-1.42,10.24-3.76,14.89-6.9c8.18-5.51,15.29-13.45,20.79-23.1 c-2.98-5.22-6.43-9.94-10.26-14.05L104.54,23.28L104.54,23.28z M88.02,0l17.84,10.3L56.2,96.32l-17.83-10.3l0.69-1.2 c-4.13-1.69-8.11-3.83-11.9-6.38C16.62,71.35,7.55,61.07,0.67,48.59L0,47.37l0.67-1.22C7.55,33.67,16.62,23.39,27.15,16.3 C37.42,9.38,49.08,5.48,61.44,5.48c7.35,0,14.44,1.38,21.14,3.94L88.02,0L88.02,0L88.02,0z M44.36,75.63l5-8.67 c-5.94-3.78-9.89-10.42-9.89-17.99c0-11.77,9.54-21.31,21.31-21.31c3.56,0,6.92,0.87,9.87,2.42l6.61-11.44 c-5.04-1.85-10.35-2.85-15.83-2.85c-9.61,0-18.71,3.06-26.76,8.48c-8.18,5.51-15.29,13.45-20.8,23.11 c5.5,9.66,12.62,17.6,20.8,23.1C37.76,72.55,41,74.28,44.36,75.63L44.36,75.63z M63.93,41.74l6.73-11.66 c-1.82-0.95-3.77-1.64-5.79-2.03c-1.45,2.18-2.31,4.82-2.31,7.67C62.56,37.88,63.06,39.93,63.93,41.74L63.93,41.74L63.93,41.74z"/></g></svg>