<?xml version="1.0" encoding="utf-8"?><svg version="1.1" id="Layer_1" xmlns="http://www.w3.org/2000/svg" xmlns:xlink="http://www.w3.org/1999/xlink" x="0px" y="0px" viewBox="0 0 122.88 83.78" style="enable-background:new 0 0 122.88 83.78" xml:space="preserve"><g><path d="M95.73,10.81c10.53,7.09,19.6,17.37,26.48,29.86l0.67,1.22l-0.67,1.21c-6.88,12.49-15.96,22.77-26.48,29.86 C85.46,79.88,73.8,83.78,61.44,83.78c-12.36,0-24.02-3.9-34.28-10.81C16.62,65.87,7.55,55.59,0.67,43.1L0,41.89l0.67-1.22 c6.88-12.49,15.95-22.77,26.48-29.86C37.42,3.9,49.08,0,61.44,0C73.8,0,85.45,3.9,95.73,10.81L95.73,10.81z M60.79,22.17l4.08,0.39 c-1.45,2.18-2.31,4.82-2.31,7.67c0,7.48,5.86,13.54,13.1,13.54c2.32,0,4.5-0.62,6.39-1.72c0.03,0.47,0.05,0.94,0.05,1.42 c0,11.77-9.54,21.31-21.31,21.31c-11.77,0-21.31-9.54-21.31-21.31C39.48,31.71,49.02,22.17,60.79,22.17L60.79,22.17L60.79,22.17z M109,41.89c-5.5-9.66-12.61-17.6-20.79-23.11c-8.05-5.42-17.15-8.48-26.77-8.48c-9.61,0-18.71,3.06-26.76,8.48 c-8.18,5.51-15.29,13.45-20.8,23.11c5.5,9.66,12.62,17.6,20.8,23.1c8.05,5.42,17.15,8.48,26.76,8.48c9.62,0,18.71-3.06,26.77-8.48 C96.39,59.49,103.5,51.55,109,41.89L109,41.89z"/></g></svg>